<svg width="33" height="31" viewBox="0 0 33 31" fill="none" xmlns="http://www.w3.org/2000/svg">
<g filter="url(#filter0_d_31_321)">
<path d="M25.9061 15.8889H13.1828L13.4669 17.2778H25.117C25.7854 17.2778 26.2809 17.8985 26.1327 18.5503L25.8933 19.6039C26.7045 19.9977 27.2639 20.8293 27.2639 21.7917C27.2639 23.1459 26.1563 24.2415 24.7976 24.222C23.5032 24.2033 22.4386 23.1529 22.4037 21.8588C22.3846 21.1519 22.6678 20.5112 23.133 20.0555H14.0337C14.4841 20.4967 14.7639 21.1114 14.7639 21.7917C14.7639 23.1724 13.6125 24.2843 12.2174 24.2195C10.9787 24.162 9.97131 23.1612 9.90621 21.9228C9.85595 20.9664 10.3592 20.1235 11.1237 19.6838L8.07478 4.77778H5.04167C4.46636 4.77778 4 4.31141 4 3.73611V3.04167C4 2.46636 4.46636 2 5.04167 2H9.49171C9.98655 2 10.4131 2.34813 10.5122 2.8329L10.9101 4.77778H27.9579C28.6263 4.77778 29.1218 5.39848 28.9737 6.0503L26.9219 15.0781C26.8141 15.5523 26.3925 15.8889 25.9061 15.8889ZM21.4926 10.3333H19.625V7.72917C19.625 7.44154 19.3918 7.20833 19.1042 7.20833H18.0625C17.7749 7.20833 17.5417 7.44154 17.5417 7.72917V10.3333H15.6741C15.2101 10.3333 14.9777 10.8944 15.3058 11.2224L18.2151 14.1317C18.4184 14.3351 18.7482 14.3351 18.9516 14.1317L21.8609 11.2224C22.189 10.8944 21.9566 10.3333 21.4926 10.3333Z" fill="white"/>
<path d="M13.1828 15.3889H12.5702L12.693 15.9891L12.977 17.378L13.0588 17.7778H13.4669H25.117C25.4645 17.7778 25.7222 18.1005 25.6452 18.4395L25.4057 19.4931L25.3177 19.8804L25.6749 20.0538C26.3205 20.3671 26.7639 21.0281 26.7639 21.7917C26.7639 22.8674 25.8842 23.7375 24.8048 23.722C23.7782 23.7072 22.9312 22.8712 22.9035 21.8453L22.4037 21.8588L22.9035 21.8453C22.8883 21.2835 23.1126 20.7754 23.4829 20.4127L24.3579 19.5555H23.133H14.0337H12.8088L13.6838 20.4127C14.0423 20.7639 14.2639 21.2515 14.2639 21.7917C14.2639 22.8885 13.3494 23.7716 12.2406 23.7201C11.2586 23.6745 10.4571 22.8781 10.4055 21.8965C10.3656 21.1368 10.7642 20.4674 11.373 20.1172L11.6859 19.9373L11.6136 19.5836L8.56464 4.67758L8.48286 4.27778H8.07478H5.04167C4.74251 4.27778 4.5 4.03527 4.5 3.73611V3.04167C4.5 2.74251 4.74251 2.5 5.04167 2.5H9.49171C9.74901 2.5 9.97081 2.68102 10.0224 2.93312L10.4202 4.87798L10.502 5.27778H10.9101H27.9579C28.3055 5.27778 28.5631 5.60054 28.4861 5.9395L26.4343 14.9673L26.4343 14.9673C26.3783 15.2139 26.159 15.3889 25.9061 15.3889H13.1828ZM19.3052 14.4853L19.3052 14.4852L22.2144 11.576C22.8575 10.9329 22.402 9.83333 21.4926 9.83333H20.125V7.72917C20.125 7.16539 19.6679 6.70833 19.1042 6.70833H18.0625C17.4987 6.70833 17.0417 7.16539 17.0417 7.72917V9.83333H15.6741C14.7647 9.83333 14.3091 10.9329 14.9523 11.576C14.9523 11.576 14.9523 11.576 14.9523 11.576L17.8615 14.4852C18.2602 14.8839 18.9065 14.8839 19.3052 14.4853Z" stroke="black" stroke-opacity="0.7"/>
</g>
<defs>
<filter id="filter0_d_31_321" x="0" y="0" width="33" height="30.2222" filterUnits="userSpaceOnUse" color-interpolation-filters="sRGB">
<feFlood flood-opacity="0" result="BackgroundImageFix"/>
<feColorMatrix in="SourceAlpha" type="matrix" values="0 0 0 0 0 0 0 0 0 0 0 0 0 0 0 0 0 0 127 0" result="hardAlpha"/>
<feOffset dy="2"/>
<feGaussianBlur stdDeviation="2"/>
<feComposite in2="hardAlpha" operator="out"/>
<feColorMatrix type="matrix" values="0 0 0 0 0 0 0 0 0 0 0 0 0 0 0 0 0 0 0.25 0"/>
<feBlend mode="normal" in2="BackgroundImageFix" result="effect1_dropShadow_31_321"/>
<feBlend mode="normal" in="SourceGraphic" in2="effect1_dropShadow_31_321" result="shape"/>
</filter>
</defs>
</svg>
