<svg width="25" height="22" viewBox="0 0 25 22" fill="none" xmlns="http://www.w3.org/2000/svg">
<path d="M22.5738 1.49576C19.8981 -0.784512 15.9186 -0.374356 13.4625 2.15982L12.5006 3.15104L11.5387 2.15982C9.08751 -0.374356 5.10314 -0.784512 2.42736 1.49576C-0.639049 4.11295 -0.800182 8.81021 1.94396 11.6471L11.3922 21.403C12.0026 22.0329 12.9938 22.0329 13.6041 21.403L23.0524 11.6471C25.8014 8.81021 25.6402 4.11295 22.5738 1.49576Z" fill="#FFFEFE"/>
<path d="M13.8216 2.5078L13.8213 2.50804L12.8594 3.49925L12.5006 3.86899L12.1418 3.49925L11.1799 2.50803L11.1793 2.50744C8.88985 0.140465 5.20368 -0.213127 2.75181 1.8762C-0.0918834 4.30344 -0.243225 8.66684 2.30334 11.2995L11.7513 21.055C11.7513 21.0551 11.7513 21.0551 11.7514 21.0551C12.1652 21.4822 12.8311 21.4822 13.2449 21.0551C13.245 21.0551 13.245 21.0551 13.245 21.055L22.6932 11.2993L22.6933 11.2992C25.2443 8.6666 25.093 4.30355 22.2495 1.87632L13.8216 2.5078ZM13.8216 2.5078C16.1161 0.140221 19.7976 -0.212947 22.2492 1.87607L13.8216 2.5078Z" stroke="black" stroke-opacity="0.7"/>
</svg>
