<svg width="33" height="28" viewBox="0 0 33 28" fill="none" xmlns="http://www.w3.org/2000/svg">
<g filter="url(#filter0_d_31_319)">
<path d="M16.1695 7.04384L8.16732 13.6345V20.7478C8.16732 20.932 8.24048 21.1086 8.37072 21.2389C8.50095 21.3691 8.67758 21.4423 8.86176 21.4423L13.7255 21.4297C13.9091 21.4288 14.0848 21.3552 14.2143 21.2251C14.3438 21.0949 14.4165 20.9188 14.4164 20.7352V16.5812C14.4164 16.397 14.4896 16.2204 14.6198 16.0901C14.7501 15.9599 14.9267 15.8867 15.1109 15.8867H17.8887C18.0728 15.8867 18.2495 15.9599 18.3797 16.0901C18.51 16.2204 18.5831 16.397 18.5831 16.5812V20.7322C18.5828 20.8236 18.6006 20.9141 18.6354 20.9986C18.6701 21.0831 18.7212 21.1599 18.7857 21.2247C18.8503 21.2894 18.9269 21.3407 19.0113 21.3758C19.0957 21.4108 19.1862 21.4288 19.2776 21.4288L24.1395 21.4423C24.3237 21.4423 24.5004 21.3691 24.6306 21.2389C24.7608 21.1086 24.834 20.932 24.834 20.7478V13.6298L16.8335 7.04384C16.7395 6.96802 16.6223 6.92668 16.5015 6.92668C16.3807 6.92668 16.2635 6.96802 16.1695 7.04384ZM28.8097 11.5234L25.1812 8.53255V2.52083C25.1812 2.3827 25.1263 2.25022 25.0287 2.15255C24.931 2.05487 24.7985 2 24.6604 2H22.2298C22.0917 2 21.9592 2.05487 21.8615 2.15255C21.7639 2.25022 21.709 2.3827 21.709 2.52083V5.67231L17.8231 2.47526C17.4502 2.16839 16.9823 2.00061 16.4993 2.00061C16.0164 2.00061 15.5485 2.16839 15.1756 2.47526L4.18902 11.5234C4.13628 11.567 4.09264 11.6206 4.06061 11.681C4.02858 11.7415 4.00877 11.8077 4.00232 11.8758C3.99587 11.9439 4.00291 12.0126 4.02302 12.078C4.04314 12.1434 4.07595 12.2042 4.11957 12.2569L5.22634 13.6024C5.26985 13.6553 5.32336 13.6991 5.38381 13.7313C5.44426 13.7635 5.51047 13.7835 5.57864 13.79C5.64681 13.7966 5.71561 13.7897 5.7811 13.7696C5.84659 13.7496 5.90748 13.7168 5.96029 13.6732L16.1695 5.26432C16.2635 5.18851 16.3807 5.14717 16.5015 5.14717C16.6223 5.14717 16.7395 5.18851 16.8335 5.26432L27.0432 13.6732C27.0959 13.7168 27.1567 13.7496 27.2221 13.7697C27.2875 13.7898 27.3562 13.7969 27.4243 13.7904C27.4924 13.784 27.5586 13.7642 27.6191 13.7321C27.6795 13.7001 27.7331 13.6565 27.7767 13.6037L28.8835 12.2582C28.927 12.2052 28.9597 12.1441 28.9796 12.0784C28.9995 12.0128 29.0062 11.9438 28.9993 11.8755C28.9925 11.8072 28.9722 11.741 28.9396 11.6805C28.9071 11.6201 28.8629 11.5667 28.8097 11.5234Z" fill="white"/>
<path d="M19.0831 20.7322V20.7338C19.083 20.7594 19.088 20.7847 19.0977 20.8084L18.6354 20.9986L19.0977 20.8084C19.1075 20.832 19.1218 20.8535 19.1399 20.8717C19.1579 20.8898 19.1794 20.9042 19.203 20.914C19.2266 20.9238 19.252 20.9288 19.2776 20.9288H19.2789L19.0831 20.7322ZM19.0831 20.7322V16.5812C19.0831 16.2644 18.9573 15.9606 18.7333 15.7366C18.5093 15.5126 18.2055 15.3867 17.8887 15.3867H15.1109C14.7941 15.3867 14.4903 15.5126 14.2663 15.7366C14.0423 15.9606 13.9164 16.2644 13.9164 16.5812V20.7352C13.9164 20.7867 13.8961 20.836 13.8598 20.8724C13.8236 20.9088 13.7745 20.9294 13.7232 20.9297C13.7231 20.9297 13.723 20.9297 13.723 20.9297L8.86176 20.9423C8.86163 20.9423 8.8615 20.9423 8.86136 20.9423C8.80994 20.9422 8.76064 20.9217 8.72427 20.8853L8.37072 21.2389L8.72427 20.8853C8.6878 20.8489 8.66732 20.7994 8.66732 20.7478V13.8705L16.4841 7.43251C16.4891 7.42873 16.4952 7.42668 16.5015 7.42668C16.5078 7.42668 16.514 7.42873 16.519 7.43251C16.5193 7.43271 16.5195 7.43291 16.5198 7.43312L24.334 13.8658V20.7478C24.334 20.7994 24.3135 20.8489 24.277 20.8853C24.2407 20.9217 24.1914 20.9421 24.14 20.9423L19.0831 20.7322ZM28.4916 11.9093L28.4942 11.9114C28.4964 11.9131 28.4981 11.9152 28.4994 11.9177C28.5007 11.9201 28.5015 11.9227 28.5018 11.9255C28.5021 11.9282 28.5018 11.931 28.501 11.9336C28.5002 11.9362 28.4989 11.9386 28.4972 11.9408L27.3913 13.2852C27.3912 13.2853 27.3912 13.2853 27.3911 13.2854C27.3894 13.2874 27.3873 13.2891 27.385 13.2903C27.3826 13.2916 27.3799 13.2924 27.3772 13.2927C27.3745 13.2929 27.3717 13.2926 27.3691 13.2918C27.3665 13.291 27.3641 13.2897 27.362 13.288L27.3611 13.2872L17.1514 4.87837L17.1514 4.87835L17.1473 4.87504C16.9644 4.72758 16.7365 4.64717 16.5015 4.64717C16.2665 4.64717 16.0386 4.72758 15.8557 4.87504L15.8557 4.87502L15.8516 4.87838L5.6424 13.2872L5.64188 13.2877C5.63977 13.2894 5.63733 13.2907 5.63471 13.2915C5.6321 13.2923 5.62935 13.2926 5.62662 13.2923C5.62389 13.2921 5.62124 13.2913 5.61883 13.29C5.6164 13.2887 5.61426 13.287 5.61253 13.2848L5.61249 13.2848L4.50572 11.9393L4.50478 11.9382C4.50304 11.9361 4.50172 11.9336 4.50092 11.931C4.50012 11.9284 4.49983 11.9257 4.50009 11.9229C4.50035 11.9202 4.50114 11.9176 4.50242 11.9151C4.50368 11.9128 4.50539 11.9107 4.50745 11.9089C4.50749 11.9089 4.50752 11.9089 4.50756 11.9088L15.4933 2.86135C15.7767 2.62813 16.1323 2.50061 16.4993 2.50061C16.8664 2.50061 17.222 2.62813 17.5054 2.86135L17.5055 2.86137L21.3913 6.05842L22.209 6.73116V5.67231V2.52083C22.209 2.51531 22.2112 2.51001 22.2151 2.5061C22.219 2.5022 22.2243 2.5 22.2298 2.5H24.6604C24.6659 2.5 24.6712 2.5022 24.6751 2.5061C24.679 2.51001 24.6812 2.51531 24.6812 2.52083V8.53255V8.76838L24.8632 8.91837L28.4916 11.9093Z" stroke="black" stroke-opacity="0.7"/>
</g>
<defs>
<filter id="filter0_d_31_319" x="0" y="0" width="33.002" height="27.4423" filterUnits="userSpaceOnUse" color-interpolation-filters="sRGB">
<feFlood flood-opacity="0" result="BackgroundImageFix"/>
<feColorMatrix in="SourceAlpha" type="matrix" values="0 0 0 0 0 0 0 0 0 0 0 0 0 0 0 0 0 0 127 0" result="hardAlpha"/>
<feOffset dy="2"/>
<feGaussianBlur stdDeviation="2"/>
<feComposite in2="hardAlpha" operator="out"/>
<feColorMatrix type="matrix" values="0 0 0 0 0 0 0 0 0 0 0 0 0 0 0 0 0 0 0.25 0"/>
<feBlend mode="normal" in2="BackgroundImageFix" result="effect1_dropShadow_31_319"/>
<feBlend mode="normal" in="SourceGraphic" in2="effect1_dropShadow_31_319" result="shape"/>
</filter>
</defs>
</svg>
