<svg width="33" height="33" viewBox="0 0 33 33" fill="none" xmlns="http://www.w3.org/2000/svg">
<g filter="url(#filter0_d_31_322)">
<path d="M16.1094 2C9.41992 2 4 7.41992 4 14.1094C4 20.7988 9.41992 26.2188 16.1094 26.2188C22.7988 26.2188 28.2188 20.7988 28.2188 14.1094C28.2188 7.41992 22.7988 2 16.1094 2ZM16.1094 6.6875C18.4824 6.6875 20.4062 8.61133 20.4062 10.9844C20.4062 13.3574 18.4824 15.2812 16.1094 15.2812C13.7363 15.2812 11.8125 13.3574 11.8125 10.9844C11.8125 8.61133 13.7363 6.6875 16.1094 6.6875ZM16.1094 23.4844C13.2432 23.4844 10.6748 22.1855 8.95605 20.1543C9.87402 18.4258 11.6709 17.2344 13.7656 17.2344C13.8828 17.2344 14 17.2539 14.1123 17.2881C14.7471 17.4932 15.4111 17.625 16.1094 17.625C16.8076 17.625 17.4766 17.4932 18.1064 17.2881C18.2188 17.2539 18.3359 17.2344 18.4531 17.2344C20.5479 17.2344 22.3447 18.4258 23.2627 20.1543C21.5439 22.1855 18.9756 23.4844 16.1094 23.4844Z" fill="white"/>
<path d="M8.51446 19.9198L8.35566 20.2188L8.57436 20.4773C10.3833 22.6151 13.0887 23.9844 16.1094 23.9844C19.13 23.9844 21.8355 22.6151 23.6444 20.4773L23.8631 20.2188L23.7043 19.9198C22.7052 18.0386 20.7446 16.7344 18.4531 16.7344C18.2808 16.7344 18.1145 16.763 17.9609 16.8097L17.9608 16.8097L17.9517 16.8127C17.3605 17.0051 16.7444 17.125 16.1094 17.125C15.4748 17.125 14.8634 17.0053 14.266 16.8123L14.266 16.8122L14.2579 16.8097C14.1043 16.763 13.938 16.7344 13.7656 16.7344C11.4741 16.7344 9.51351 18.0386 8.51446 19.9198ZM4.5 14.1094C4.5 7.69606 9.69606 2.5 16.1094 2.5C22.5227 2.5 27.7188 7.69606 27.7188 14.1094C27.7188 20.5227 22.5227 25.7188 16.1094 25.7188C9.69606 25.7188 4.5 20.5227 4.5 14.1094ZM20.9062 10.9844C20.9062 8.33519 18.7586 6.1875 16.1094 6.1875C13.4602 6.1875 11.3125 8.33519 11.3125 10.9844C11.3125 13.6336 13.4602 15.7812 16.1094 15.7812C18.7586 15.7812 20.9062 13.6336 20.9062 10.9844Z" stroke="black" stroke-opacity="0.7"/>
</g>
<defs>
<filter id="filter0_d_31_322" x="0" y="0" width="32.2188" height="32.2188" filterUnits="userSpaceOnUse" color-interpolation-filters="sRGB">
<feFlood flood-opacity="0" result="BackgroundImageFix"/>
<feColorMatrix in="SourceAlpha" type="matrix" values="0 0 0 0 0 0 0 0 0 0 0 0 0 0 0 0 0 0 127 0" result="hardAlpha"/>
<feOffset dy="2"/>
<feGaussianBlur stdDeviation="2"/>
<feComposite in2="hardAlpha" operator="out"/>
<feColorMatrix type="matrix" values="0 0 0 0 0 0 0 0 0 0 0 0 0 0 0 0 0 0 0.25 0"/>
<feBlend mode="normal" in2="BackgroundImageFix" result="effect1_dropShadow_31_322"/>
<feBlend mode="normal" in="SourceGraphic" in2="effect1_dropShadow_31_322" result="shape"/>
</filter>
</defs>
</svg>
